<svg width="291" height="78" viewBox="0 0 291 78" fill="none" xmlns="http://www.w3.org/2000/svg">
<path d="M97.3179 38.8149C96.3978 38.9601 95.526 38.3306 95.3808 37.4104L94.2911 30.582C94.1458 29.6619 94.7754 28.7902 95.6955 28.6449C96.6157 28.4996 97.4874 29.1292 97.6327 30.0493L98.7223 36.8777C98.8676 37.7979 98.238 38.6696 97.3179 38.8149Z" fill="#494949"/>
<path d="M89.6177 39.13C88.4312 34.1176 95.8165 31.8657 97.9474 34.2871C100.224 36.8538 102.04 40.3407 102.04 40.3407C102.04 40.3407 117.779 41.9872 127.561 34.7956C136.69 28.0882 146.085 30.1707 147.441 33.9965C149.112 38.6941 122.016 46.709 107.488 45.1835C92.9593 43.658 90.8284 44.2876 89.6177 39.13Z" fill="#CCCCCC"/>
<path d="M138.047 21.8921C138.047 20.0276 133.761 19.5918 129.572 18.4053C126.448 22.328 126.254 27.9457 126.399 30.7546C133.058 29.0354 140.153 28.2363 138.047 21.8921Z" fill="#494949"/>
<path d="M137.005 14.3329C133.518 14.8171 131.17 16.3911 129.571 18.4009C133.76 19.5874 138.046 20.0232 138.046 21.8877C140.153 28.2319 133.058 29.0309 126.399 30.7502C126.448 31.7914 126.545 32.4694 126.545 32.4694C133.857 34.915 150.953 27.5781 150.25 23.05C149.572 18.4977 147.732 12.8074 137.005 14.3329Z" fill="#999898"/>
<path d="M0.000831556 65.9854C-0.0233827 67.7046 0.485117 69.3996 1.01783 70.6587C13.4155 66.954 28.8885 66.7845 40.4629 72.2085C39.7365 63.6608 38.7679 55.3795 38.7679 46.1055C22.9318 48.3574 11.3331 56.9535 0.000831556 65.9854Z" fill="url(#paint0_linear_181_23)"/>
<path d="M1.01758 70.6574C1.52608 71.9165 2.03458 72.7398 2.03458 72.7398H40.4869C40.4626 72.5703 40.4626 72.4008 40.4384 72.2071C28.864 66.7831 13.4153 66.9526 1.01758 70.6574Z" fill="#494949"/>
<path d="M133.204 53.3681C164.755 49.1548 199.938 50.4139 216.573 23.8509C212.748 23.415 208.462 23.0276 203.207 22.6886C188.557 21.7442 180.204 20.4609 180.204 20.4609C180.204 20.4609 171.22 15.957 165.578 13.0997C156.183 8.35374 145.141 11.6953 145.141 11.6953L145.432 28.6937C145.432 28.6937 135.601 34.7957 121.072 36.4181C106.544 38.0404 98.3593 37.9194 98.3593 37.9194L90.1748 31.8658L70.0528 33.9967C27.4841 33.9967 9.27492 53.9734 1.69585 61.6978C0.460926 62.9569 0.0250688 64.4824 0.000854492 65.9837C11.3331 56.976 22.9318 48.3799 38.7679 46.1038C38.7679 55.5716 39.7849 63.9981 40.5113 72.7395H113.493C116.98 63.3928 123.542 55.3052 133.204 53.3681Z" fill="url(#paint1_linear_181_23)"/>
<path d="M245.994 28.5511C233.451 26.5171 226.574 24.9916 216.573 23.8535C199.938 50.4166 164.755 49.1574 133.204 53.3707C123.542 55.3079 116.98 63.3954 113.493 72.7422H213.111L214.927 70.7324L233.693 69.11L259.723 30.9725C259.723 30.9725 264.421 31.5537 245.994 28.5511Z" fill="url(#paint2_linear_181_23)"/>
<path d="M245.316 0.218174C243.476 0.218174 241.805 1.64682 241.805 3.51132V3.60816L241.878 17.5314C241.878 18.2578 242.096 18.9358 242.507 19.5169C243.234 20.5824 244.638 22.0594 246.938 22.4711C250.619 23.1249 256.261 25.5463 256.987 32.7622C257.447 37.3387 257.326 43.4407 257.181 47.2907C257.108 49.3005 258.731 50.9713 260.74 50.9471L270.983 50.8744C276.48 50.8744 285.342 43.8765 286.359 37.8229L290.064 3.92296C290.282 1.81631 288.635 -0.023978 286.529 0.000236292L245.316 0.218174Z" fill="url(#paint3_linear_181_23)"/>
<path d="M53.9986 77.5827C66.984 77.5827 77.5107 67.056 77.5107 54.0707C77.5107 41.0853 66.984 30.5586 53.9986 30.5586C41.0133 30.5586 30.4866 41.0853 30.4866 54.0707C30.4866 67.056 41.0133 77.5827 53.9986 77.5827Z" fill="url(#paint4_radial_181_23)"/>
<path d="M53.9986 67.3406C61.3271 67.3406 67.268 61.3997 67.268 54.0712C67.268 46.7427 61.3271 40.8018 53.9986 40.8018C46.6701 40.8018 40.7291 46.7427 40.7291 54.0712C40.7291 61.3997 46.6701 67.3406 53.9986 67.3406Z" fill="#BDBDBD"/>
<path d="M53.999 62.3007C58.5459 62.3007 62.2318 58.6147 62.2318 54.0678C62.2318 49.5209 58.5459 45.835 53.999 45.835C49.4521 45.835 45.7661 49.5209 45.7661 54.0678C45.7661 58.6147 49.4521 62.3007 53.999 62.3007Z" fill="#494949"/>
<path d="M53.9986 57.8488C56.0848 57.8488 57.776 56.1576 57.776 54.0714C57.776 51.9852 56.0848 50.2939 53.9986 50.2939C51.9124 50.2939 50.2212 51.9852 50.2212 54.0714C50.2212 56.1576 51.9124 57.8488 53.9986 57.8488Z" stroke="#666666" stroke-width="1.21071" stroke-miterlimit="10"/>
<path d="M268.513 72.7389H242.483C238.463 72.7389 235.219 69.4941 235.219 65.4746V46.1032C235.219 42.0836 238.463 38.8389 242.483 38.8389H268.513C272.533 38.8389 275.777 42.0836 275.777 46.1032V65.4746C275.777 69.4941 273.138 73.2474 268.513 72.7389Z" fill="#636262"/>
<path d="M255.703 72.7397H113.323L115.648 67.582H255.703V72.7397Z" fill="#636262"/>
<path d="M245.291 77.5827C258.277 77.5827 268.803 67.056 268.803 54.0707C268.803 41.0853 258.277 30.5586 245.291 30.5586C232.306 30.5586 221.779 41.0853 221.779 54.0707C221.779 67.056 232.306 77.5827 245.291 77.5827Z" fill="url(#paint5_radial_181_23)"/>
<path d="M245.291 67.3406C252.62 67.3406 258.561 61.3997 258.561 54.0712C258.561 46.7427 252.62 40.8018 245.291 40.8018C237.963 40.8018 232.022 46.7427 232.022 54.0712C232.022 61.3997 237.963 67.3406 245.291 67.3406Z" fill="#BDBDBD"/>
<path d="M245.292 62.3007C249.839 62.3007 253.525 58.6147 253.525 54.0678C253.525 49.5209 249.839 45.835 245.292 45.835C240.745 45.835 237.059 49.5209 237.059 54.0678C237.059 58.6147 240.745 62.3007 245.292 62.3007Z" fill="#494949"/>
<path d="M245.291 57.8488C247.378 57.8488 249.069 56.1576 249.069 54.0714C249.069 51.9852 247.378 50.2939 245.291 50.2939C243.205 50.2939 241.514 51.9852 241.514 54.0714C241.514 56.1576 243.205 57.8488 245.291 57.8488Z" stroke="#666666" stroke-width="1.21071" stroke-miterlimit="10"/>
<path d="M288.369 19.6623H262.75C260.086 19.6623 257.907 17.483 257.907 14.8194V11.5989C257.907 8.93532 260.086 6.75604 262.75 6.75604L289.797 6.65918L288.369 19.6623Z" fill="#E6E6E6"/>
<defs>
<linearGradient id="paint0_linear_181_23" x1="20.2314" y1="44.2894" x2="20.2314" y2="70.344" gradientUnits="userSpaceOnUse">
<stop offset="0.2754" stop-color="#EEEEEE"/>
<stop offset="0.4797" stop-color="#E5E5E5"/>
<stop offset="0.8066" stop-color="#CECECE"/>
<stop offset="1" stop-color="#BDBDBD"/>
</linearGradient>
<linearGradient id="paint1_linear_181_23" x1="108.287" y1="30.9699" x2="108.287" y2="71.5288" gradientUnits="userSpaceOnUse">
<stop offset="0.0051129" stop-color="#ED1C24"/>
<stop offset="1" stop-color="#C1272D"/>
</linearGradient>
<linearGradient id="paint2_linear_181_23" x1="186.876" y1="21.2868" x2="186.876" y2="71.5314" gradientUnits="userSpaceOnUse">
<stop offset="0.2754" stop-color="#EEEEEE"/>
<stop offset="0.4797" stop-color="#E5E5E5"/>
<stop offset="0.8066" stop-color="#CECECE"/>
<stop offset="1" stop-color="#BDBDBD"/>
</linearGradient>
<linearGradient id="paint3_linear_181_23" x1="241.805" y1="25.4737" x2="290.083" y2="25.4737" gradientUnits="userSpaceOnUse">
<stop offset="0.0051129" stop-color="#ED1C24"/>
<stop offset="1" stop-color="#C1272D"/>
</linearGradient>
<radialGradient id="paint4_radial_181_23" cx="0" cy="0" r="1" gradientUnits="userSpaceOnUse" gradientTransform="translate(53.9986 54.0707) scale(23.5121 23.5121)">
<stop offset="0.7689"/>
<stop offset="1" stop-color="#504F4F"/>
</radialGradient>
<radialGradient id="paint5_radial_181_23" cx="0" cy="0" r="1" gradientUnits="userSpaceOnUse" gradientTransform="translate(245.291 54.0707) scale(23.5121)">
<stop offset="0.7689"/>
<stop offset="1" stop-color="#504F4F"/>
</radialGradient>
</defs>
</svg>
